<mxfile host="www.draw.io" modified="2019-11-04T12:57:57.512Z" agent="Mozilla/5.0 (Macintosh; Intel Mac OS X 10_11_6) AppleWebKit/537.36 (KHTML, like Gecko) Chrome/77.0.3865.120 Safari/537.36" etag="K_y7xRjm5ZCPCZsB30UZ" version="12.1.9" type="github" pages="1">
  <diagram id="Ccgbg-lzcWB6y4U78KbH" name="第 1 页">
    <mxGraphModel dx="1149" dy="534" grid="1" gridSize="10" guides="1" tooltips="1" connect="1" arrows="1" fold="1" page="1" pageScale="1" pageWidth="827" pageHeight="1169" math="0" shadow="0">
      <root>
        <mxCell id="0"/>
        <mxCell id="1" parent="0"/>
        <mxCell id="8MoHvSeIlfk4m0O5agX2-1" value="蚂蚁环境&lt;br&gt;(主站、金融云、阿里云)" style="whiteSpace=wrap;html=1;aspect=fixed;" vertex="1" parent="1">
          <mxGeometry x="246" y="360" width="80" height="80" as="geometry"/>
        </mxCell>
        <mxCell id="8MoHvSeIlfk4m0O5agX2-2" value="XX消金" style="whiteSpace=wrap;html=1;aspect=fixed;" vertex="1" parent="1">
          <mxGeometry x="373" y="250" width="80" height="80" as="geometry"/>
        </mxCell>
        <mxCell id="8MoHvSeIlfk4m0O5agX2-3" value="YY银行" style="whiteSpace=wrap;html=1;aspect=fixed;" vertex="1" parent="1">
          <mxGeometry x="373" y="360" width="80" height="80" as="geometry"/>
        </mxCell>
        <mxCell id="8MoHvSeIlfk4m0O5agX2-4" value="ZZ机构" style="whiteSpace=wrap;html=1;aspect=fixed;" vertex="1" parent="1">
          <mxGeometry x="373" y="470" width="80" height="80" as="geometry"/>
        </mxCell>
        <mxCell id="8MoHvSeIlfk4m0O5agX2-5" value="Oracle" style="shape=cylinder;whiteSpace=wrap;html=1;boundedLbl=1;backgroundOutline=1;" vertex="1" parent="1">
          <mxGeometry x="500" y="360" width="60" height="80" as="geometry"/>
        </mxCell>
        <mxCell id="8MoHvSeIlfk4m0O5agX2-6" value="Mysql" style="shape=cylinder;whiteSpace=wrap;html=1;boundedLbl=1;backgroundOutline=1;" vertex="1" parent="1">
          <mxGeometry x="500" y="250" width="60" height="80" as="geometry"/>
        </mxCell>
        <mxCell id="8MoHvSeIlfk4m0O5agX2-7" value="" style="endArrow=classic;startArrow=classic;html=1;exitX=1;exitY=0.5;exitDx=0;exitDy=0;entryX=0;entryY=0.5;entryDx=0;entryDy=0;" edge="1" parent="1" source="8MoHvSeIlfk4m0O5agX2-1" target="8MoHvSeIlfk4m0O5agX2-2">
          <mxGeometry width="50" height="50" relative="1" as="geometry">
            <mxPoint x="326" y="330" as="sourcePoint"/>
            <mxPoint x="376" y="280" as="targetPoint"/>
          </mxGeometry>
        </mxCell>
        <mxCell id="8MoHvSeIlfk4m0O5agX2-9" value="" style="endArrow=classic;startArrow=classic;html=1;exitX=1;exitY=0.5;exitDx=0;exitDy=0;" edge="1" parent="1" source="8MoHvSeIlfk4m0O5agX2-1">
          <mxGeometry width="50" height="50" relative="1" as="geometry">
            <mxPoint x="326" y="450" as="sourcePoint"/>
            <mxPoint x="376" y="400" as="targetPoint"/>
          </mxGeometry>
        </mxCell>
        <mxCell id="8MoHvSeIlfk4m0O5agX2-10" value="" style="endArrow=classic;html=1;entryX=0;entryY=0.5;entryDx=0;entryDy=0;exitX=1;exitY=0.5;exitDx=0;exitDy=0;" edge="1" parent="1" source="8MoHvSeIlfk4m0O5agX2-3" target="8MoHvSeIlfk4m0O5agX2-5">
          <mxGeometry width="50" height="50" relative="1" as="geometry">
            <mxPoint x="480" y="510" as="sourcePoint"/>
            <mxPoint x="530" y="460" as="targetPoint"/>
          </mxGeometry>
        </mxCell>
        <mxCell id="8MoHvSeIlfk4m0O5agX2-11" value="" style="endArrow=classic;startArrow=classic;html=1;exitX=1;exitY=0.5;exitDx=0;exitDy=0;entryX=0;entryY=0.5;entryDx=0;entryDy=0;" edge="1" parent="1" source="8MoHvSeIlfk4m0O5agX2-1" target="8MoHvSeIlfk4m0O5agX2-4">
          <mxGeometry width="50" height="50" relative="1" as="geometry">
            <mxPoint x="280" y="600" as="sourcePoint"/>
            <mxPoint x="330" y="480" as="targetPoint"/>
          </mxGeometry>
        </mxCell>
        <mxCell id="8MoHvSeIlfk4m0O5agX2-12" value="" style="endArrow=classic;html=1;entryX=0;entryY=0.5;entryDx=0;entryDy=0;" edge="1" parent="1" source="8MoHvSeIlfk4m0O5agX2-2" target="8MoHvSeIlfk4m0O5agX2-6">
          <mxGeometry width="50" height="50" relative="1" as="geometry">
            <mxPoint x="440" y="230" as="sourcePoint"/>
            <mxPoint x="490" y="180" as="targetPoint"/>
          </mxGeometry>
        </mxCell>
        <mxCell id="8MoHvSeIlfk4m0O5agX2-13" value="Zdal" style="shape=cylinder;whiteSpace=wrap;html=1;boundedLbl=1;backgroundOutline=1;" vertex="1" parent="1">
          <mxGeometry x="139" y="300" width="60" height="80" as="geometry"/>
        </mxCell>
        <mxCell id="8MoHvSeIlfk4m0O5agX2-14" value="RDS" style="shape=cylinder;whiteSpace=wrap;html=1;boundedLbl=1;backgroundOutline=1;" vertex="1" parent="1">
          <mxGeometry x="139" y="420" width="60" height="80" as="geometry"/>
        </mxCell>
        <mxCell id="8MoHvSeIlfk4m0O5agX2-15" value="" style="endArrow=classic;html=1;entryX=1;entryY=0.5;entryDx=0;entryDy=0;exitX=0;exitY=0.5;exitDx=0;exitDy=0;" edge="1" parent="1" source="8MoHvSeIlfk4m0O5agX2-1" target="8MoHvSeIlfk4m0O5agX2-13">
          <mxGeometry width="50" height="50" relative="1" as="geometry">
            <mxPoint x="240" y="340" as="sourcePoint"/>
            <mxPoint x="290" y="290" as="targetPoint"/>
          </mxGeometry>
        </mxCell>
        <mxCell id="8MoHvSeIlfk4m0O5agX2-16" value="" style="endArrow=classic;html=1;entryX=1;entryY=0.5;entryDx=0;entryDy=0;exitX=0;exitY=0.5;exitDx=0;exitDy=0;" edge="1" parent="1" source="8MoHvSeIlfk4m0O5agX2-1" target="8MoHvSeIlfk4m0O5agX2-14">
          <mxGeometry width="50" height="50" relative="1" as="geometry">
            <mxPoint x="256" y="410" as="sourcePoint"/>
            <mxPoint x="209" y="350" as="targetPoint"/>
          </mxGeometry>
        </mxCell>
      </root>
    </mxGraphModel>
  </diagram>
</mxfile>
